<svg width="49" height="50" viewBox="0 0 49 50" fill="none" xmlns="http://www.w3.org/2000/svg">
<path d="M5.97623 16.5448H47.869C44.4227 6.9114 35.074 0 24.0769 0C13.083 0 3.73588 6.9114 0.289551 16.5448H5.97623Z" fill="#7C7F7E" fill-opacity="0.8"/>
<path d="M26.4843 32.0966C25.5696 30.9996 24.754 29.8159 24.0802 28.5471C23.4048 29.8159 22.5908 30.998 21.6745 32.0966H0C3.19285 42.1666 12.7667 49.4783 24.0786 49.4783C35.3906 49.4783 44.9644 42.1666 48.1588 32.0966H26.4843Z" fill="#7C7F7E" fill-opacity="0.8"/>
<path d="M14.7107 19.8359L12.1964 22.3546L9.6821 19.8359C9.24128 19.3946 8.52808 19.3946 8.08725 19.8359C7.648 20.2772 7.648 20.9912 8.08725 21.4309L10.6031 23.948L8.08883 26.4652C7.64957 26.9065 7.64957 27.6205 8.08883 28.0602C8.52965 28.5015 9.24285 28.5015 9.68368 28.0602L12.198 25.5431L14.7123 28.0602C15.1531 28.5015 15.8663 28.5015 16.3055 28.0602C16.7464 27.6189 16.7464 26.9049 16.3055 26.4652L13.7928 23.948L16.3071 21.4309C16.7479 20.9912 16.7479 20.2756 16.3071 19.8359C15.8663 19.3946 15.1515 19.3946 14.7107 19.8359Z" fill="#7C7F7E" fill-opacity="0.8"/>
<path d="M35.2174 20.6429C33.3564 20.6429 31.8403 22.1591 31.8403 24.0237C31.8403 25.8867 33.3564 27.403 35.2174 27.403C37.0783 27.403 38.5944 25.8867 38.5944 24.0237C38.5944 22.1591 37.0783 20.6429 35.2174 20.6429ZM35.2174 29.8617C32.0009 29.8617 29.3843 27.2422 29.3843 24.0237C29.3843 20.8036 32.0009 18.1841 35.2174 18.1841C38.4338 18.1841 41.0505 20.8036 41.0505 24.0237C41.0505 27.2422 38.4338 29.8617 35.2174 29.8617Z" fill="#7C7F7E" fill-opacity="0.8"/>
</svg>
