<svg width="43" height="43" viewBox="0 0 43 43" fill="none" xmlns="http://www.w3.org/2000/svg">
<path d="M21.368 0.0344238C9.58594 0.0344238 0.034668 9.5857 0.034668 21.3678C0.034668 33.1498 9.58594 42.7011 21.368 42.7011C33.1501 42.7011 42.7013 33.1498 42.7013 21.3678C42.7013 9.5857 33.1501 0.0344238 21.368 0.0344238ZM21.368 39.1858C12.0865 39.1858 4.56468 31.664 4.56468 22.3825C4.56468 13.101 12.0865 5.57916 21.368 5.57916C30.6495 5.57916 38.1753 13.101 38.1753 22.3825C38.1753 31.664 30.6495 39.1858 21.368 39.1858Z" fill="#EBC918"/>
<path d="M21.368 2.54304C32.7272 2.54304 42.0128 11.4259 42.6611 22.6241C42.6852 22.2093 42.7013 21.7906 42.7013 21.3678C42.7013 9.5857 33.1501 0.0344238 21.368 0.0344238C9.58594 0.0344238 0.034668 9.5857 0.034668 21.3678C0.034668 21.7906 0.0507747 22.2053 0.0749347 22.6241C0.72323 11.4259 10.0087 2.54304 21.368 2.54304Z" fill="#F9EC31"/>
<path d="M21.3683 36.5241C12.5337 36.5241 5.30182 29.7069 4.62132 21.0496C4.58507 21.4885 4.56494 21.9314 4.56494 22.3824C4.56494 31.6639 12.0868 39.1857 21.3683 39.1857C30.6497 39.1857 38.1756 31.6639 38.1756 22.3824C38.1756 21.9354 38.1514 21.4925 38.1192 21.0496C37.4387 29.7069 30.2028 36.5241 21.3683 36.5241Z" fill="#B58F08"/>
</svg>
