<svg width="49" height="53" viewBox="0 0 49 53" fill="none" xmlns="http://www.w3.org/2000/svg">
<path d="M5.97671 19.5448H47.8695C44.4232 9.9114 35.0745 3 24.0774 3C13.0835 3 3.73637 9.9114 0.290039 19.5448H5.97671Z" fill="#1070FF"/>
<path d="M26.4843 35.0966C25.5696 33.9996 24.754 32.8159 24.0802 31.5471C23.4048 32.8159 22.5908 33.998 21.6745 35.0966H0C3.19285 45.1666 12.7667 52.4783 24.0786 52.4783C35.3906 52.4783 44.9644 45.1666 48.1588 35.0966H26.4843Z" fill="#1070FF"/>
<path d="M14.7107 22.8359L12.1964 25.3546L9.6821 22.8359C9.24128 22.3946 8.52808 22.3946 8.08725 22.8359C7.648 23.2772 7.648 23.9912 8.08725 24.4309L10.6031 26.948L8.08883 29.4652C7.64957 29.9065 7.64957 30.6205 8.08883 31.0602C8.52965 31.5015 9.24285 31.5015 9.68368 31.0602L12.198 28.5431L14.7123 31.0602C15.1531 31.5015 15.8663 31.5015 16.3055 31.0602C16.7464 30.6189 16.7464 29.9049 16.3055 29.4652L13.7928 26.948L16.3071 24.4309C16.7479 23.9912 16.7479 23.2756 16.3071 22.8359C15.8663 22.3946 15.1515 22.3946 14.7107 22.8359Z" fill="#F9EC31"/>
<path d="M35.2169 23.6429C33.356 23.6429 31.8398 25.1591 31.8398 27.0237C31.8398 28.8867 33.356 30.403 35.2169 30.403C37.0778 30.403 38.5939 28.8867 38.5939 27.0237C38.5939 25.1591 37.0778 23.6429 35.2169 23.6429ZM35.2169 32.8617C32.0004 32.8617 29.3838 30.2422 29.3838 27.0237C29.3838 23.8036 32.0004 21.1841 35.2169 21.1841C38.4333 21.1841 41.05 23.8036 41.05 27.0237C41.05 30.2422 38.4333 32.8617 35.2169 32.8617Z" fill="#F9EC31"/>
<mask id="mask0" mask-type="alpha" maskUnits="userSpaceOnUse" x="2" y="0" width="24" height="22">
<path d="M7.5 13.5C6.7 10.7 2.83333 10.1667 2 10C5.83333 7.83333 13.2 3.6 9.99999 6C5.99999 9 9.5 8 11 11.5C12.5 15 10.5 15.5 13.5 20.5C15.574 23.9567 8.5 17 7.5 13.5Z" fill="white"/>
<path d="M15 8.99999C13 6.6 16.6667 3 18 1.5L22 0C21 2 20.258 9.76331 21 11C22.5 13.5 25.5 15 25 18C24.5 21 18 23.5 20 19.5C22 15.5 17.5 12 15 8.99999Z" fill="white"/>
</mask>
<g mask="url(#mask0)">
<path d="M6.00015 19.5448H46.8929C43.4466 9.9114 35.0979 3 24.1008 3C13.1069 3 3.7598 9.9114 0.313478 19.5448H6.00015Z" fill="white"/>
</g>
<mask id="mask1" mask-type="alpha" maskUnits="userSpaceOnUse" x="27" y="2" width="15" height="19">
<path d="M27.3664 6.5C26.1664 3.3 28.1997 2.16667 29.3664 2C31.1997 2.33333 34.3664 3.1 32.3664 3.5C30.3664 3.9 29.8664 4.66667 29.8664 5C30.6997 6.33333 31.8664 9.7 29.8664 12.5C27.8664 15.3 26.8664 13 27.8664 11.5C28.8664 8.5 28.5664 9.7 27.3664 6.5Z" fill="white"/>
<path d="M34.3664 11C33.1664 6.6 35.8664 4.83333 37.3664 4.5C38.8664 4.66667 41.7664 5.6 41.3664 8C40.8664 11 39.3664 13.5 37.8664 15.5C36.6664 17.1 37.6997 19.5 38.3664 20.5C36.1997 20.6667 32.1664 20.9 33.3664 20.5C34.8664 20 35.8664 16.5 34.3664 11Z" fill="white"/>
</mask>
<g mask="url(#mask1)">
<path d="M6.00015 19.5448H47.8929C44.4466 9.9114 35.0979 3 24.1008 3C13.1069 3 3.7598 9.9114 0.313478 19.5448H6.00015Z" fill="white"/>
</g>
</svg>
