<svg width="64" height="64" viewBox="0 0 64 64" fill="none"
     xmlns="http://www.w3.org/2000/svg">
    <path d="M12.9762 23.5448H54.869C51.4227 13.9114 42.074 7 31.0769 7C20.083 7 10.7359 13.9114 7.28955 23.5448H12.9762Z"
          fill="white"/>
    <path d="M33.4843 39.0966C32.5696 37.9996 31.754 36.8159 31.0802 35.5471C30.4048 36.8159 29.5908 37.998 28.6745 39.0966H7C10.1929 49.1666 19.7667 56.4783 31.0786 56.4783C42.3906 56.4783 51.9644 49.1666 55.1588 39.0966H33.4843Z"
          fill="#F9EC31"/>
    <path d="M21.7107 26.8359L19.1964 29.3546L16.6821 26.8359C16.2413 26.3946 15.5281 26.3946 15.0873 26.8359C14.648 27.2772 14.648 27.9912 15.0873 28.4309L17.6031 30.948L15.0888 33.4652C14.6496 33.9065 14.6496 34.6205 15.0888 35.0602C15.5297 35.5015 16.2429 35.5015 16.6837 35.0602L19.198 32.5431L21.7123 35.0602C22.1531 35.5015 22.8663 35.5015 23.3055 35.0602C23.7464 34.6189 23.7464 33.9049 23.3055 33.4652L20.7928 30.948L23.3071 28.4309C23.7479 27.9912 23.7479 27.2756 23.3071 26.8359C22.8663 26.3946 22.1515 26.3946 21.7107 26.8359Z"
          fill="white"/>
    <path d="M42.2174 27.6429C40.3564 27.6429 38.8403 29.1591 38.8403 31.0237C38.8403 32.8867 40.3564 34.403 42.2174 34.403C44.0783 34.403 45.5944 32.8867 45.5944 31.0237C45.5944 29.1591 44.0783 27.6429 42.2174 27.6429ZM42.2174 36.8617C39.0009 36.8617 36.3843 34.2422 36.3843 31.0237C36.3843 27.8036 39.0009 25.1841 42.2174 25.1841C45.4338 25.1841 48.0505 27.8036 48.0505 31.0237C48.0505 34.2422 45.4338 36.8617 42.2174 36.8617Z"
          fill="white"/>
    <mask id="mask0" mask-type="alpha" maskUnits="userSpaceOnUse" x="0" y="0"
          width="64" height="64">
        <path d="M0 5C0 2.23858 2.23858 0 5 0H59C61.7614 0 64 2.23858 64 5V59C64 61.7614 61.7614 64 59 64H5C2.23858 64 0 61.7614 0 59V5Z"
              fill="black"/>
    </mask>
    <g mask="url(#mask0)">
        <path opacity="0.1"
              d="M31.1039 -34.7665C28.9179 -34.6866 27.215 -32.7375 27.2253 -30.4466L27.6373 47.2995L35.6822 47.349L35.2693 -30.5822C35.2568 -32.9455 33.3747 -34.8503 31.1039 -34.7665Z"
              fill="white"/>
        <path d="M31.675 50.3788C30.0926 50.3879 28.7945 49.047 28.7875 47.389L28.3746 -30.5422C28.3658 -32.1985 29.6479 -33.556 31.2303 -33.5651C32.8127 -33.5742 34.1108 -32.2334 34.1178 -30.5753L34.5307 47.3559C34.5412 49.0139 33.2574 50.3696 31.675 50.3788Z"
              fill="#52FFFF"/>
        <path d="M31.6662 48.7257C30.9527 48.7298 30.3703 48.1272 30.3663 47.3798L29.9534 -30.5513C29.9495 -31.2987 30.5255 -31.9081 31.239 -31.9122C31.9525 -31.9163 32.535 -31.3136 32.5389 -30.5663L32.9518 47.3649C32.9558 48.1123 32.3797 48.7216 31.6662 48.7257Z"
              fill="white"/>
        <path d="M36.0074 55.7524L35.2456 55.7568L35.2522 57.009L36.014 57.0046L36.0074 55.7524Z"
              fill="#B0B0B5"/>
        <path d="M35.5752 55.7563L34.8135 55.7607L34.8201 57.0129L35.5818 57.0085L35.5752 55.7563Z"
              fill="#88888C"/>
        <path d="M28.5575 55.7953L27.3486 55.8022L27.3552 57.0544L28.5641 57.0474L28.5575 55.7953Z"
              fill="#52FFFF"/>
        <path d="M32.8143 83.3336L30.8823 83.3448C29.8438 83.3507 28.9954 82.551 28.9902 81.5612L28.8066 46.7744L34.504 46.7415L34.6875 81.5284C34.6927 82.5215 33.8545 83.3293 32.8143 83.3336Z"
              fill="#2B2A2B"/>
        <path d="M34.6028 65.4832C34.3103 65.2644 33.2555 64.5247 31.7068 64.5488C30.2092 64.5709 29.201 65.2888 28.9055 65.5161C28.8726 59.2677 28.8396 53.0227 28.8067 46.7743L34.504 46.7415L34.6028 65.4832Z"
              fill="#98979C"/>
        <path d="M34.6436 57.8911L28.7803 57.9249C28.5048 57.9265 28.2794 57.714 28.278 57.4514L28.2217 46.776L35.0828 46.7348L35.1392 57.4102C35.1423 57.6745 34.9192 57.8895 34.6436 57.8911Z"
              fill="#98979C"/>
        <path d="M33.635 54.4309L33.6005 47.8795L29.6904 47.9021L29.725 54.4534C29.7256 54.5612 29.7879 54.6635 29.8888 54.7151L31.4402 55.5242L31.4451 56.4534C31.4458 56.5847 31.5559 56.6884 31.6936 56.6876C31.8314 56.6868 31.9403 56.5818 31.9396 56.4506L31.9347 55.5214L33.4775 54.6944C33.5743 54.6416 33.6374 54.5403 33.635 54.4309Z"
              fill="#2B2A2B"/>
        <path d="M29.7021 48.7038L29.7051 49.2751L33.6138 49.2526L33.6107 48.6813L29.7021 48.7038Z"
              fill="#1C1B1C"/>
        <path d="M29.7079 49.8686L29.7109 50.4399L33.6196 50.4174L33.6166 49.8461L29.7079 49.8686Z"
              fill="#1C1B1C"/>
        <path d="M29.7138 51.0332L29.7168 51.6045L33.6255 51.5819L33.6225 51.0106L29.7138 51.0332Z"
              fill="#1C1B1C"/>
        <path d="M29.7196 52.2007L29.7227 52.772L33.6314 52.7494L33.6283 52.1781L29.7196 52.2007Z"
              fill="#1C1B1C"/>
        <path d="M29.7289 53.3676L29.7319 53.939L33.6407 53.9164L33.6376 53.3451L29.7289 53.3676Z"
              fill="#1C1B1C"/>
        <path d="M29.7338 54.528L29.7368 55.0994L33.6455 55.0768L33.6425 54.5055L29.7338 54.528Z"
              fill="#1C1B1C"/>
        <path d="M34.6687 62.2758L28.8054 62.3097C28.5299 62.3113 28.3045 62.0988 28.3031 61.8362L28.3001 61.2605C28.2987 60.9979 28.5219 60.7828 28.7974 60.7812L34.6607 60.7474C34.9362 60.7458 35.1616 60.9583 35.163 61.2209L35.166 61.7966C35.1656 62.0609 34.9442 62.2742 34.6687 62.2758Z"
              fill="#B0B0B5"/>
        <path d="M35.4841 48.1147L27.8406 48.1588C27.5651 48.1604 27.3397 47.9479 27.3383 47.6853L27.3352 47.1096C27.3338 46.847 27.557 46.6319 27.8325 46.6304L35.4761 46.5863C35.7516 46.5847 35.977 46.7972 35.9784 47.0598L35.9814 47.6355C35.981 47.8997 35.7596 48.1131 35.4841 48.1147Z"
              fill="#B0B0B5"/>
        <path d="M30.2951 56.0899C30.4329 55.9571 30.4318 55.7431 30.2926 55.6119C30.1534 55.4806 29.9288 55.4819 29.791 55.6148C29.6532 55.7476 29.6543 55.9616 29.7935 56.0928C29.9327 56.224 30.1573 56.2227 30.2951 56.0899Z"
              fill="#88888C"/>
        <path d="M33.0015 55.8333C33.0023 55.6465 33.1587 55.4958 33.3547 55.4929C33.5507 55.4901 33.7087 55.6424 33.7115 55.8292C33.7142 56.0161 33.5543 56.1668 33.3583 56.1696C33.1605 56.1708 33.0007 56.0202 33.0015 55.8333Z"
              fill="#88888C"/>
        <g opacity="0.5">
            <path opacity="0.5"
                  d="M35.6677 48.1133C35.8408 48.1123 35.9814 47.9768 35.9823 47.8102L35.9774 46.8843C35.9765 46.7194 35.8345 46.5855 35.6597 46.5849L31.573 46.6084L31.765 83.3395L33.0578 83.332C33.962 83.3268 34.693 82.6223 34.6885 81.7605L34.6874 81.5686L34.9524 81.5671C35.1254 81.5661 35.266 81.4306 35.2669 81.2639L35.2467 77.4294C35.2458 77.2644 35.1038 77.1306 34.9289 77.1299L34.664 77.1314L34.6026 65.4797L34.5856 62.2714L34.8505 62.2698C35.0236 62.2688 35.1642 62.1334 35.1651 61.9667L35.1602 61.0409C35.1593 60.8759 35.0173 60.7421 34.8425 60.7414L34.5776 60.7429L34.5625 57.8881L34.8274 57.8866C35.0005 57.8856 35.1411 57.7501 35.142 57.5834L35.092 48.1132L35.6677 48.1133Z"
                  fill="#88888C"/>
        </g>
        <path opacity="0.58"
              d="M43.6146 -3.89568C43.4755 -30.2694 37.8737 -51.6189 31.1027 -51.5798C24.3316 -51.5408 18.9555 -30.128 19.0946 -3.75424C19.2337 22.6195 24.8355 43.969 31.6065 43.9299C38.3776 43.8909 43.7555 22.4797 43.6146 -3.89568Z"
              fill="url(#paint0_radial)"/>
        <path opacity="0.3"
              d="M32.2367 62.8909C41.3319 62.8384 48.6629 54.7683 48.6107 44.8672C48.5584 34.966 41.1428 26.981 32.0475 27.0334C22.9523 27.0859 15.6213 35.156 15.6736 45.0571C15.7241 54.9599 23.1415 62.9433 32.2367 62.8909Z"
              fill="url(#paint1_radial)"/>
    </g>
    <defs>
        <radialGradient id="paint0_radial" cx="0" cy="0" r="1"
                        gradientUnits="userSpaceOnUse"
                        gradientTransform="translate(31.3546 -3.82433) rotate(179.669) scale(9.11899 40.7776)">
            <stop stop-color="#96FFF6"/>
            <stop offset="1" stop-color="#96FFF6" stop-opacity="0"/>
        </radialGradient>
        <radialGradient id="paint1_radial" cx="0" cy="0" r="1"
                        gradientUnits="userSpaceOnUse"
                        gradientTransform="translate(32.1416 44.9636) rotate(-90.3023) scale(14.3178 13.5932)">
            <stop stop-color="#96FFF6"/>
            <stop offset="1" stop-color="#96FFF6" stop-opacity="0"/>
        </radialGradient>
    </defs>
</svg>
