<svg width="52" height="54" viewBox="0 0 52 54" fill="none" xmlns="http://www.w3.org/2000/svg">
<path d="M28.161 38.3585C27.3653 37.4042 26.6559 36.3746 26.0698 35.2709C25.4822 36.3746 24.7742 37.4029 23.9771 38.3585H5.12305C7.90042 47.1181 16.2284 53.4784 26.0684 53.4784C35.9083 53.4784 44.2364 47.1181 47.0151 38.3585H28.161Z" fill="#F9EC31"/>
<path d="M18.3135 34H12.6768C12.2997 34 12 33.5571 12 33C12 32.4429 12.2997 32 12.6768 32H18.3135C18.6906 32 19 32.4571 19 33C19 33.5571 18.6906 34 18.3135 34Z" fill="white"/>
<path d="M38.3135 34H32.6768C32.2997 34 32 33.5571 32 33C32 32.4429 32.2997 32 32.6768 32H38.3135C38.6906 32 39 32.4571 39 33C39 33.5571 38.6906 34 38.3135 34Z" fill="white"/>
<g clip-path="url(#clip0)">
<path d="M40.3994 18.861C39.0949 18.861 38.9295 17.5151 38.9295 17.5151C37.298 9.9241 31.503 1.38595 30.1177 0.595514C28.7287 -0.194924 23.0072 -0.194924 21.6182 0.595514C20.2292 1.38595 14.438 9.92766 12.8064 17.5187C12.8064 17.5187 12.6447 18.8646 11.3365 18.8646C10.4289 18.8646 5.62614 15.6993 2.12052 14.3214C0.735179 13.773 -0.547275 15.2863 0.242775 16.5146C1.04017 17.7537 4.28122 25.8432 14.8458 27.6377C17.9252 28.1611 33.796 28.0828 36.8901 27.6377C43.78 26.6443 50.9419 17.3941 51.7945 16.0411C52.4632 14.98 51.3829 13.6876 50.1776 14.1113C46.6463 15.3397 41.3548 18.861 40.3994 18.861Z" fill="#F9EC31"/>
<path d="M11.3364 18.86C11.3364 18.86 25.9542 22.2354 40.3992 18.86L38.7897 15.652C24.3447 19.0274 13.0745 15.652 13.0745 15.652L11.3364 18.86Z" fill="black"/>
</g>
<defs>
<clipPath id="clip0">
<rect width="52" height="28" fill="white"/>
</clipPath>
</defs>
</svg>
