<svg width="64" height="64" viewBox="0 0 64 64" fill="none" xmlns="http://www.w3.org/2000/svg">
<mask id="mask0" mask-type="alpha" maskUnits="userSpaceOnUse" x="0" y="0" width="64" height="64">
<rect width="64" height="64" rx="5" fill="black"/>
</mask>
<g mask="url(#mask0)">
<path d="M24.8351 44.8028C24.6558 43.0353 26.0432 41.5 27.8197 41.5H35.5833C37.3942 41.5 38.7923 43.0923 38.5581 44.888L34.8407 73.388C34.6458 74.8822 33.3728 76 31.8659 76H30.7111C29.1714 76 27.8818 74.8345 27.7264 73.3028L24.8351 44.8028Z" fill="white"/>
</g>
<mask id="mask1" mask-type="alpha" maskUnits="userSpaceOnUse" x="0" y="0" width="64" height="64">
<rect width="64" height="64" rx="2" fill="black"/>
</mask>
<g mask="url(#mask1)">
<path d="M45.9539 41L59.071 58.8904C59.071 58.8904 52.2723 57.6081 49.1546 55.5653L49.9565 58.2959C49.9565 58.2959 39.5215 75.2703 30.0337 83.8042C30.0371 83.8042 42.1519 58.9837 45.9539 41Z" fill="#7C7F7E"/>
<path d="M17.1171 41L4 58.8904C4 58.8904 10.7988 57.6081 13.9165 55.5653L13.1146 58.2959C13.1146 58.2959 23.5495 75.2703 33.0373 83.8042C33.0339 83.8042 20.9226 58.9837 17.1171 41Z" fill="#7C7F7E"/>
</g>
<path d="M15.9003 19H52C49.0302 10.8483 40.9743 5 31.498 5C22.0243 5 13.9698 10.8483 11 19H15.9003Z" fill="#F9EC31"/>
<path d="M33.5474 32.8828C32.7686 31.9919 32.0743 31.0305 31.5007 30C30.9257 31.0305 30.2327 31.9906 29.4526 32.8828H11C13.7182 41.0615 21.8689 47 31.4993 47C41.1298 47 49.2804 41.0615 52 32.8828H33.5474Z" fill="#F9EC31"/>
<path d="M40.7327 41.2093L39.8631 41.6116C39.6167 41.2224 39.4512 41 39.4512 41C39.4512 41 39.1836 40.9837 36.6171 42.0891C34.7053 42.9132 33.4907 43.9598 32.5718 45.7716C32.5683 45.7814 32.5648 45.7912 32.5612 45.801V45.7716H30.4348C29.5159 43.9598 28.3012 42.9132 26.3895 42.0891C23.8194 40.9837 23.5518 41 23.5518 41C23.5518 41 23.3829 41.2224 23.1364 41.6116L22.2703 41.2093C22.2703 41.2093 19.7706 44.3032 20.0171 48.0805C20.2213 51.1874 22.647 53.9967 22.647 53.9967L23.8089 53.4081C24.1644 53.7809 24.4144 53.9967 24.4144 53.9967C24.4144 53.9967 29.5511 51.7663 30.4312 48.8883H32.5577V48.8491C32.5612 48.8621 32.5648 48.8785 32.5683 48.8916C33.4485 51.7696 38.5851 54 38.5851 54C38.5851 54 38.8351 53.7842 39.1907 53.4113L40.3525 54C40.3525 54 42.7818 51.1874 42.9824 48.0838C43.2324 44.3032 40.7327 41.2093 40.7327 41.2093Z" fill="#CB0808"/>
</svg>
