<svg width="50" height="50" viewBox="0 0 50 50" fill="none" xmlns="http://www.w3.org/2000/svg">
<circle cx="25" cy="25" r="25" fill="#CB0808"/>
<path d="M14.6478 41C27.129 33.6667 22.9074 17.9815 19.2365 11.0556L11.5887 8C10.0591 10.8519 7 18.1444 7 24.5C7 30.8556 12.0985 38.1481 14.6478 41Z" fill="black"/>
<path d="M35.3522 41C22.871 33.6667 27.0926 17.9815 30.7635 11.0556L38.4113 8C39.9409 10.8519 43 18.1444 43 24.5C43 30.8556 37.9015 38.1481 35.3522 41Z" fill="black"/>
<path d="M18.0193 25H9.96685C9.42818 25 9 24.5571 9 24C9 23.4429 9.42818 23 9.96685 23H18.0193C18.558 23 19 23.4571 19 24C19 24.5571 18.558 25 18.0193 25Z" fill="white"/>
<path d="M39.9213 25H31.0635C30.471 25 30 24.5571 30 24C30 23.4429 30.471 23 31.0635 23H39.9213C40.5138 23 41 23.4571 41 24C41 24.5571 40.5138 25 39.9213 25Z" fill="white"/>
</svg>
