<svg width="49" height="50" viewBox="0 0 49 50" fill="none" xmlns="http://www.w3.org/2000/svg">
<path d="M5.97623 16.5448H47.869C44.4227 6.9114 35.074 0 24.0769 0C13.083 0 3.73588 6.9114 0.289551 16.5448H5.97623Z" fill="#1070FF"/>
<path d="M26.4843 32.0966C25.5696 30.9996 24.754 29.8159 24.0802 28.5471C23.4048 29.8159 22.5908 30.998 21.6745 32.0966H0C3.19285 42.1666 12.7667 49.4783 24.0786 49.4783C35.3906 49.4783 44.9644 42.1666 48.1588 32.0966H26.4843Z" fill="#F9EC31"/>
<path d="M35.2174 20.6427C33.3564 20.6427 31.8403 22.159 31.8403 24.0236C31.8403 25.8866 33.3564 27.4028 35.2174 27.4028C37.0783 27.4028 38.5944 25.8866 38.5944 24.0236C38.5944 22.159 37.0783 20.6427 35.2174 20.6427ZM35.2174 29.8616C32.0009 29.8616 29.3843 27.2421 29.3843 24.0236C29.3843 20.8035 32.0009 18.184 35.2174 18.184C38.4338 18.184 41.0505 20.8035 41.0505 24.0236C41.0505 27.2421 38.4338 29.8616 35.2174 29.8616Z" fill="white"/>
<path d="M11.5 17L13.1839 22.1824H18.6329L14.2245 25.3853L15.9084 30.5676L11.5 27.3647L7.09161 30.5676L8.77547 25.3853L4.36708 22.1824H9.81614L11.5 17Z" fill="white"/>
</svg>
