<svg width="75" height="77" viewBox="0 0 75 77" fill="none" xmlns="http://www.w3.org/2000/svg">
<path d="M19.0294 30.5448H60.9222C57.4759 20.9114 48.1272 14 37.1301 14C26.1362 14 16.7891 20.9114 13.3428 30.5448H19.0294Z" fill="#F9EC31"/>
<path d="M39.537 46.0964C38.6223 44.9994 37.8068 43.8157 37.1329 42.5469C36.4575 43.8157 35.6436 44.9978 34.7273 46.0964H13.0527C16.2456 56.1664 25.8194 63.4781 37.1314 63.4781C48.4433 63.4781 58.0171 56.1664 61.2116 46.0964H39.537Z" fill="#F9EC31"/>
<path d="M27.7634 33.8359L25.2491 36.3546L22.7348 33.8359C22.294 33.3946 21.5808 33.3946 21.14 33.8359C20.7007 34.2772 20.7007 34.9912 21.14 35.4309L23.6559 37.948L21.1416 40.4652C20.7023 40.9065 20.7023 41.6205 21.1416 42.0602C21.5824 42.5015 22.2956 42.5015 22.7364 42.0602L25.2507 39.5431L27.765 42.0602C28.2058 42.5015 28.919 42.5015 29.3583 42.0602C29.7991 41.6189 29.7991 40.9049 29.3583 40.4652L26.8456 37.948L29.3598 35.4309C29.8007 34.9912 29.8007 34.2756 29.3598 33.8359C28.919 33.3946 28.2043 33.3946 27.7634 33.8359Z" fill="white"/>
<path d="M48.2696 34.6429C46.4087 34.6429 44.8926 36.1591 44.8926 38.0237C44.8926 39.8867 46.4087 41.403 48.2696 41.403C50.1305 41.403 51.6467 39.8867 51.6467 38.0237C51.6467 36.1591 50.1305 34.6429 48.2696 34.6429ZM48.2696 43.8617C45.0531 43.8617 42.4365 41.2422 42.4365 38.0237C42.4365 34.8036 45.0531 32.1841 48.2696 32.1841C51.4861 32.1841 54.1027 34.8036 54.1027 38.0237C54.1027 41.2422 51.4861 43.8617 48.2696 43.8617Z" fill="white"/>
<path d="M2.11137 5.84449H16.9101C15.6927 2.44147 12.3902 0 8.50548 0C4.62185 0 1.31996 2.44147 0.102539 5.84449H2.11137Z" fill="#F9EC31"/>
<path d="M9.35563 11.3383C9.03251 10.9508 8.74442 10.5327 8.50638 10.0845C8.26779 10.5327 7.98026 10.9503 7.65658 11.3383H0C1.12788 14.8956 4.50986 17.4785 8.50583 17.4785C12.5018 17.4785 15.8838 14.8956 17.0122 11.3383H9.35563Z" fill="#F9EC31"/>
<path d="M5.19635 7.00706L4.30817 7.89679L3.41999 7.00706C3.26427 6.85116 3.01233 6.85116 2.85661 7.00706C2.70144 7.16296 2.70144 7.41518 2.85661 7.57052L3.74535 8.45969L2.85717 9.34887C2.702 9.50476 2.702 9.75698 2.85717 9.91233C3.01289 10.0682 3.26483 10.0682 3.42055 9.91233L4.30873 9.02315L5.19691 9.91233C5.35263 10.0682 5.60457 10.0682 5.75974 9.91233C5.91546 9.75643 5.91546 9.50421 5.75974 9.34887L4.87211 8.45969L5.76029 7.57052C5.91602 7.41518 5.91602 7.1624 5.76029 7.00706C5.60457 6.85116 5.35208 6.85116 5.19635 7.00706Z" fill="white"/>
<path d="M12.4404 7.29191C11.7831 7.29191 11.2475 7.82753 11.2475 8.4862C11.2475 9.14431 11.7831 9.67993 12.4404 9.67993C13.0978 9.67993 13.6334 9.14431 13.6334 8.4862C13.6334 7.82753 13.0978 7.29191 12.4404 7.29191ZM12.4404 10.5485C11.3042 10.5485 10.3799 9.62314 10.3799 8.4862C10.3799 7.3487 11.3042 6.42334 12.4404 6.42334C13.5767 6.42334 14.501 7.3487 14.501 8.4862C14.501 9.62314 13.5767 10.5485 12.4404 10.5485Z" fill="white"/>
<path d="M59.1114 5.84449H73.9101C72.6927 2.44147 69.3902 0 65.5055 0C61.6219 0 58.32 2.44147 57.1025 5.84449H59.1114Z" fill="#F9EC31"/>
<path d="M66.3556 11.3383C66.0325 10.9508 65.7444 10.5327 65.5064 10.0845C65.2678 10.5327 64.9803 10.9503 64.6566 11.3383H57C58.1279 14.8956 61.5099 17.4785 65.5058 17.4785C69.5018 17.4785 72.8838 14.8956 74.0122 11.3383H66.3556Z" fill="#F9EC31"/>
<path d="M69.4404 7.29191C68.7831 7.29191 68.2475 7.82753 68.2475 8.4862C68.2475 9.14431 68.7831 9.67993 69.4404 9.67993C70.0978 9.67993 70.6334 9.14431 70.6334 8.4862C70.6334 7.82753 70.0978 7.29191 69.4404 7.29191ZM69.4404 10.5485C68.3042 10.5485 67.3799 9.62314 67.3799 8.4862C67.3799 7.3487 68.3042 6.42334 69.4404 6.42334C70.5767 6.42334 71.501 7.3487 71.501 8.4862C71.501 9.62314 70.5767 10.5485 69.4404 10.5485Z" fill="white"/>
<path d="M62.6077 9H59.3867C59.1713 9 59 8.77857 59 8.5C59 8.22143 59.1713 8 59.3867 8H62.6077C62.8232 8 63 8.22857 63 8.5C63 8.77857 62.8232 9 62.6077 9Z" fill="white"/>
<path d="M2.11137 64.8445H16.9101C15.6927 61.4415 12.3902 59 8.50548 59C4.62185 59 1.31996 61.4415 0.102539 64.8445H2.11137Z" fill="#F9EC31"/>
<path d="M9.35563 70.3383C9.03251 69.9508 8.74442 69.5327 8.50638 69.0845C8.26779 69.5327 7.98026 69.9503 7.65658 70.3383H0C1.12788 73.8956 4.50986 76.4785 8.50583 76.4785C12.5018 76.4785 15.8838 73.8956 17.0122 70.3383H9.35563Z" fill="#F9EC31"/>
<path d="M5.19635 66.0071L4.30817 66.8968L3.41999 66.0071C3.26427 65.8512 3.01233 65.8512 2.85661 66.0071C2.70144 66.163 2.70144 66.4152 2.85661 66.5705L3.74535 67.4597L2.85717 68.3489C2.702 68.5048 2.702 68.757 2.85717 68.9123C3.01289 69.0682 3.26483 69.0682 3.42055 68.9123L4.30873 68.0232L5.19691 68.9123C5.35263 69.0682 5.60457 69.0682 5.75974 68.9123C5.91546 68.7564 5.91546 68.5042 5.75974 68.3489L4.87211 67.4597L5.76029 66.5705C5.91602 66.4152 5.91602 66.1624 5.76029 66.0071C5.60457 65.8512 5.35208 65.8512 5.19635 66.0071Z" fill="white"/>
<path d="M13.4561 66.0071L12.5679 66.8968L11.6798 66.0071C11.524 65.8512 11.2721 65.8512 11.1164 66.0071C10.9612 66.163 10.9612 66.4152 11.1164 66.5705L12.0051 67.4597L11.1169 68.3489C10.9618 68.5048 10.9618 68.757 11.1169 68.9123C11.2727 69.0682 11.5246 69.0682 11.6803 68.9123L12.5685 68.0232L13.4567 68.9123C13.6124 69.0682 13.8643 69.0682 14.0195 68.9123C14.1752 68.7564 14.1752 68.5042 14.0195 68.3489L13.1319 67.4597L14.0201 66.5705C14.1758 66.4152 14.1758 66.1624 14.0201 66.0071C13.8643 65.8512 13.6118 65.8512 13.4561 66.0071Z" fill="white"/>
<path d="M59.1114 64.8445H73.9101C72.6927 61.4415 69.3902 59 65.5055 59C61.6219 59 58.32 61.4415 57.1025 64.8445H59.1114Z" fill="#F9EC31"/>
<path d="M66.3556 70.3383C66.0325 69.9508 65.7444 69.5327 65.5064 69.0845C65.2678 69.5327 64.9803 69.9503 64.6566 70.3383H57C58.1279 73.8956 61.5099 76.4785 65.5058 76.4785C69.5018 76.4785 72.8838 73.8956 74.0122 70.3383H66.3556Z" fill="#F9EC31"/>
<path d="M69.4404 66.2919C68.7831 66.2919 68.2475 66.8275 68.2475 67.4862C68.2475 68.1443 68.7831 68.6799 69.4404 68.6799C70.0978 68.6799 70.6334 68.1443 70.6334 67.4862C70.6334 66.8275 70.0978 66.2919 69.4404 66.2919ZM69.4404 69.5485C68.3042 69.5485 67.3799 68.6231 67.3799 67.4862C67.3799 66.3487 68.3042 65.4233 69.4404 65.4233C70.5767 65.4233 71.501 66.3487 71.501 67.4862C71.501 68.6231 70.5767 69.5485 69.4404 69.5485Z" fill="white"/>
<path d="M61.0606 66.2919C60.4032 66.2919 59.8676 66.8275 59.8676 67.4862C59.8676 68.1443 60.4032 68.6799 61.0606 68.6799C61.7179 68.6799 62.2535 68.1443 62.2535 67.4862C62.2535 66.8275 61.7179 66.2919 61.0606 66.2919ZM61.0606 69.5485C59.9243 69.5485 59 68.6231 59 67.4862C59 66.3487 59.9243 65.4233 61.0606 65.4233C62.1968 65.4233 63.1211 66.3487 63.1211 67.4862C63.1211 68.6231 62.1968 69.5485 61.0606 69.5485Z" fill="white"/>
</svg>
