<svg width="63" height="64" viewBox="0 0 63 64" fill="none" xmlns="http://www.w3.org/2000/svg">
<path d="M9.21285 20.9618H62.3521C57.979 8.75708 46.1224 0 32.1746 0C18.2268 0 6.37025 8.75708 2 20.9618" fill="#F9EC31"/>
<path d="M35.094 41.2937C33.9239 39.8855 32.8727 38.3583 32 36.7319C31.1273 38.3583 30.0761 39.8855 28.906 41.2937H1C5.10557 54.245 17.4421 63.6462 32 63.6462C46.5579 63.6462 58.8944 54.245 63 41.2937H35.094" fill="#F9EC31"/>
<path d="M49.8165 25.4206L46.6286 28.6113L43.4407 25.4206C42.8826 24.8626 41.9765 24.8626 41.4185 25.4206C40.8605 25.9786 40.8605 26.8847 41.4185 27.4427L44.6092 30.6306L41.4185 33.8185C40.8605 34.3766 40.8605 35.2827 41.4185 35.8407C41.9765 36.4015 42.8826 36.4015 43.4407 35.8407L46.6286 32.6528L49.8165 35.8407C50.3745 36.3987 51.2806 36.3987 51.8386 35.8407C52.3966 35.2827 52.3966 34.3766 51.8386 33.8185L48.6507 30.6306L51.8386 27.4427C52.3966 26.8847 52.3966 25.9786 51.8386 25.4206C51.2806 24.8598 50.3745 24.8598 49.8165 25.4206Z" fill="white"/>
<path d="M30 31C30 39.2995 23.2995 46 15 46C6.70051 46 0 39.2995 0 31C0 22.7005 6.70051 16 15 16C23.2995 16 30 22.7005 30 31ZM6.3198 31C6.3198 35.797 10.203 39.6802 15 39.6802C19.797 39.6802 23.6802 35.797 23.6802 31C23.6802 26.203 19.797 22.3198 15 22.3198C10.203 22.3198 6.3198 26.203 6.3198 31Z" fill="#000001"/>
<path d="M28.3246 31.0002C28.3246 38.3098 22.3855 44.325 14.9997 44.325C7.69003 44.325 1.6748 38.386 1.6748 31.0002C1.6748 23.6905 7.61389 17.6753 14.9997 17.6753C22.3093 17.6753 28.3246 23.6905 28.3246 31.0002ZM4.49207 31.0002C4.49207 36.787 9.21288 41.5078 14.9997 41.5078C20.7865 41.5078 25.5073 36.787 25.5073 31.0002C25.5073 25.2134 20.7865 20.4925 14.9997 20.4925C9.21288 20.4925 4.49207 25.2134 4.49207 31.0002Z" fill="white"/>
<path d="M22.3097 31.0001C22.3097 35.0356 19.0356 38.3097 15.0001 38.3097C10.9645 38.3097 7.69043 35.0356 7.69043 31.0001C7.69043 26.9645 10.9645 23.6904 15.0001 23.6904C19.0356 23.6904 22.3097 26.9645 22.3097 31.0001ZM8.68028 31.0001C8.68028 34.5026 11.4975 37.3199 15.0001 37.3199C18.5026 37.3199 21.3199 34.5026 21.3199 31.0001C21.3199 27.4975 18.5026 24.6803 15.0001 24.6803C11.4975 24.6803 8.68028 27.5737 8.68028 31.0001Z" fill="white"/>
<path d="M16.9792 24.7561C17.9691 25.7459 17.9691 27.421 16.9792 28.487C15.9894 29.4769 14.3142 29.4769 13.2482 28.487C12.2584 27.4972 12.2584 25.822 13.2482 24.7561C14.3142 23.7662 15.9894 23.7662 16.9792 24.7561Z" fill="white"/>
<path d="M36.6835 53.9924C36.9068 54.7447 37.5531 55.2923 38.3374 55.3175C40.5022 55.3872 44.8647 55.1903 47.1898 52.7395C48.4057 51.458 49.7682 49.3358 50.3717 48.3578C50.5766 48.0256 50.6256 47.6221 50.5145 47.2479V47.2479C50.158 46.0468 48.3787 45.7839 47.6071 46.7711C47.0331 47.5055 46.3114 48.3829 45.4161 49.3997C44.2521 50.7215 40.9947 51.1743 38.6172 51.3261C37.2823 51.4114 36.3028 52.7101 36.6835 53.9924V53.9924Z" fill="black"/>
</svg>
