<svg width="76" height="79" viewBox="0 0 76 79" fill="none" xmlns="http://www.w3.org/2000/svg">
<path d="M14.2907 21.2115H68C63.5816 8.86087 51.5959 0 37.497 0C23.402 0 11.4184 8.86087 7 21.2115H14.2907Z" fill="#F9EC31"/>
<path d="M51.7792 26.4653C49.3934 26.4653 47.4496 28.4093 47.4496 30.7998C47.4496 33.1883 49.3934 35.1322 51.7792 35.1322C54.165 35.1322 56.1088 33.1883 56.1088 30.7998C56.1088 28.4093 54.165 26.4653 51.7792 26.4653ZM51.7792 38.2845C47.6555 38.2845 44.3008 34.9261 44.3008 30.7998C44.3008 26.6714 47.6555 23.313 51.7792 23.313C55.9029 23.313 59.2576 26.6714 59.2576 30.7998C59.2576 34.9261 55.9029 38.2845 51.7792 38.2845Z" fill="white"/>
<path d="M27.3935 32.5926H16.3286C15.5884 32.5926 15 32.0185 15 31.2963C15 30.5741 15.5884 30 16.3286 30H27.3935C28.1337 30 28.741 30.5926 28.741 31.2963C28.741 32.0185 28.1337 32.5926 27.3935 32.5926Z" fill="white"/>
<mask id="mask0" mask-type="alpha" maskUnits="userSpaceOnUse" x="0" y="36" width="76" height="43">
<path d="M0 36.5742H75.3844V78.9998H0V36.5742Z" fill="white"/>
</mask>
<g mask="url(#mask0)">
<path d="M57.8247 42.71H17.1069C12.413 42.71 8.62402 46.499 8.62402 51.1928V139.415C8.62402 144.109 12.413 147.898 17.1069 147.898H57.8247C62.5185 147.898 66.3075 144.109 66.3075 139.415V51.1928C66.3075 46.499 62.5185 42.71 57.8247 42.71Z" fill="white"/>
</g>
<mask id="mask1" mask-type="alpha" maskUnits="userSpaceOnUse" x="5" y="38" width="65" height="41">
<path d="M5.5 38H69.5V79H5.5V38Z" fill="white"/>
</mask>
<g mask="url(#mask1)">
<path d="M18.3731 44.4272H56.6544C60.9125 44.4272 64.3489 47.8636 64.3489 52.1217V137.344C64.3489 141.602 60.9125 145.038 56.6544 145.038H18.3731C14.115 145.038 10.6787 141.602 10.6787 137.344V52.1217C10.6787 47.8636 14.115 44.4272 18.3731 44.4272Z" stroke="black"/>
</g>
<path d="M15.0098 53.5C15.0098 51.2909 16.8006 49.5 19.0098 49.5H32.0098C34.2189 49.5 36.0098 51.2909 36.0098 53.5C36.0098 55.7091 34.2189 57.5 32.0098 57.5H19.0098C16.8006 57.5 15.0098 55.7091 15.0098 53.5Z" stroke="black"/>
<path d="M23.5098 53.5C23.5098 52.1193 24.6291 51 26.0098 51H31.0098C32.3905 51 33.5098 52.1193 33.5098 53.5C33.5098 54.8807 32.3905 56 31.0098 56H26.0098C24.6291 56 23.5098 54.8807 23.5098 53.5Z" fill="black"/>
<circle cx="20.0098" cy="53.5" r="2.5" fill="black"/>
<path d="M39.9921 65.2614L38.0098 67.2448L36.0274 65.2614C35.6804 64.9146 35.117 64.9146 34.77 65.2614C34.423 65.6083 34.423 66.1715 34.77 66.5184L36.7541 68.5L34.77 70.4816C34.423 70.8285 34.423 71.3917 34.77 71.7386C35.117 72.0871 35.6804 72.0871 36.0274 71.7386L38.0098 69.757L39.9921 71.7386C40.3391 72.0854 40.9025 72.0854 41.2495 71.7386C41.5965 71.3917 41.5965 70.8285 41.2495 70.4816L39.2672 68.5L41.2495 66.5184C41.5965 66.1715 41.5965 65.6083 41.2495 65.2614C40.9025 64.9129 40.3391 64.9129 39.9921 65.2614Z" fill="black"/>
</svg>
