<svg width="80" height="64" viewBox="0 0 80 64" fill="none" xmlns="http://www.w3.org/2000/svg">
<path d="M16.4102 21H71C66.5092 8.77251 54.327 0 39.9969 0C25.6709 0 13.4909 8.77251 9 21H16.4102Z" fill="#98979C"/>
<path d="M43.094 41.2937C41.9239 39.8855 40.8727 38.3583 40 36.7319C39.1273 38.3583 38.0761 39.8855 36.906 41.2937H9C13.1056 54.245 25.4421 63.6462 40 63.6462C54.5579 63.6462 66.8944 54.245 71 41.2937H43.094Z" fill="#FDACFF"/>
<path d="M27.9403 26.5261L24.7074 29.759L21.4746 26.5261C20.8994 25.9708 19.987 25.9708 19.4119 26.5261C18.8367 27.1013 18.8367 28.0136 19.4119 28.5888L22.6447 31.8217L19.4119 35.0546C18.8367 35.6298 18.8367 36.5421 19.4119 37.0974C19.987 37.6726 20.8994 37.6726 21.4746 37.0974L24.7074 33.8646L27.9403 37.0974C28.5155 37.6726 29.4278 37.6726 29.9832 37.0974C30.5584 36.5223 30.5584 35.6099 29.9832 35.0546L26.7503 31.8217L29.9832 28.5888C30.5584 28.0136 30.5584 27.1013 29.9832 26.5261C29.408 25.9509 28.4957 25.9509 27.9403 26.5261Z" fill="white"/>
<path d="M54.3392 27.5574C51.9393 27.5574 49.9956 29.5011 49.9956 31.9009C49.9956 34.3008 51.9393 36.2445 54.3392 36.2445C56.7391 36.2445 58.6828 34.3008 58.6828 31.9009C58.6828 29.5011 56.7193 27.5574 54.3392 27.5574ZM54.3392 39.4179C50.194 39.4179 46.8223 36.0462 46.8223 31.9208C46.8223 27.7755 50.194 24.4038 54.3392 24.4038C58.4845 24.4038 61.8562 27.7755 61.8562 31.9208C61.8363 36.0462 58.4646 39.4179 54.3392 39.4179Z" fill="white"/>
<circle cx="35.5" cy="56.5" r="2.5" fill="#FF51B9"/>
<circle cx="24.5" cy="49.5" r="2.5" fill="#FF51B9"/>
<circle cx="42.801" cy="47.801" r="2.5" transform="rotate(-7.39548 42.801 47.801)" fill="#FF51B9"/>
<circle cx="55.5" cy="52.5" r="2.5" fill="#FF51B9"/>
<mask id="mask0" mask-type="alpha" maskUnits="userSpaceOnUse" x="0" y="19" width="80" height="23">
<path d="M75.5 19H4L0 28L6 41.5H37L40 37L42.5 41.5H74L79.5 28L75.5 19Z" fill="#404040"/>
</mask>
<g mask="url(#mask0)">
<rect x="-2" y="19" width="86" height="3.83333" fill="#FF3030"/>
<rect x="-2" y="22.8335" width="86" height="3.83333" fill="#FFA928"/>
<rect x="-1.59863" y="26.6768" width="86" height="3.83333" fill="#F9EC31"/>
<rect x="-2" y="30.5" width="86" height="3.83333" fill="#22FF7A"/>
<rect x="-2" y="34.3335" width="86" height="3.83333" fill="#59C3FF"/>
<rect x="-2" y="38.1665" width="86" height="3.83333" fill="#7142D3"/>
</g>
</svg>
