<svg width="83" height="69" viewBox="0 0 83 69" fill="none" xmlns="http://www.w3.org/2000/svg">
<path d="M17.7129 25.9618H70.8521C66.479 13.7571 54.6224 5 40.6746 5C26.7268 5 14.8703 13.7571 10.5 25.9618" fill="#F9EC31"/>
<path d="M44.594 46.2937C43.4239 44.8855 42.3727 43.3583 41.5 41.7319C40.6273 43.3583 39.5761 44.8855 38.406 46.2937H10.5C14.6056 59.245 26.9421 68.6462 41.5 68.6462C56.0579 68.6462 68.3944 59.245 72.5 46.2937H44.594Z" fill="#F9EC31"/>
<path d="M66.1193 37.3096C66.1193 41.3452 62.8452 44.6193 58.8096 44.6193C54.7741 44.6193 51.5 41.3452 51.5 37.3096C51.5 33.2741 54.7741 30 58.8096 30C62.8452 30 66.1193 33.2741 66.1193 37.3096ZM52.4899 37.3096C52.4899 40.8122 55.3071 43.6294 58.8096 43.6294C62.3122 43.6294 65.1294 40.8122 65.1294 37.3096C65.1294 33.8071 62.3122 30.9898 58.8096 30.9898C55.3071 30.9898 52.4899 33.8832 52.4899 37.3096Z" fill="white"/>
<path d="M63.9307 39.5693C64.6898 40.3285 64.6898 41.6131 63.9307 42.4307C63.1715 43.1898 61.8869 43.1898 61.0693 42.4307C60.3102 41.6715 60.3102 40.3869 61.0693 39.5693C61.8869 38.8102 63.1715 38.8102 63.9307 39.5693Z" fill="white"/>
<path d="M59.3613 32.1387C60.8796 33.6569 60.8796 36.2263 59.3613 37.8613C57.8431 39.3796 55.2737 39.3796 53.6387 37.8613C52.1204 36.3431 52.1204 33.7737 53.6387 32.1387C55.2737 30.6204 57.8431 30.6204 59.3613 32.1387Z" fill="white"/>
<path d="M31.1193 37.3096C31.1193 41.3452 27.8452 44.6193 23.8096 44.6193C19.7741 44.6193 16.5 41.3452 16.5 37.3096C16.5 33.2741 19.7741 30 23.8096 30C27.8452 30 31.1193 33.2741 31.1193 37.3096ZM17.4899 37.3096C17.4899 40.8122 20.3071 43.6294 23.8096 43.6294C27.3122 43.6294 30.1294 40.8122 30.1294 37.3096C30.1294 33.8071 27.3122 30.9898 23.8096 30.9898C20.3071 30.9898 17.4899 33.8832 17.4899 37.3096Z" fill="white"/>
<path d="M28.9307 39.5693C29.6898 40.3285 29.6898 41.6131 28.9307 42.4307C28.1715 43.1898 26.8869 43.1898 26.0693 42.4307C25.3102 41.6715 25.3102 40.3869 26.0693 39.5693C26.8869 38.8102 28.1715 38.8102 28.9307 39.5693Z" fill="white"/>
<path d="M24.3613 32.1387C25.8796 33.6569 25.8796 36.2263 24.3613 37.8613C22.8431 39.3796 20.2737 39.3796 18.6387 37.8613C17.1204 36.3431 17.1204 33.7737 18.6387 32.1387C20.2737 30.6204 22.8431 30.6204 24.3613 32.1387Z" fill="white"/>
<path d="M41 61.1142L37.1758 55L44.8242 55L41 61.1142Z" stroke="black" stroke-width="2"/>
<ellipse cx="25" cy="8" rx="8.5" ry="8" fill="#F9EC31"/>
<ellipse rx="8.5" ry="8" transform="matrix(-1 0 0 1 58 8)" fill="#F9EC31"/>
<path d="M2.35996 21.2489C1.08691 19.4963 1.5752 17.0309 3.42014 15.8959L21.4482 4.80507C23.1034 3.78682 25.2634 4.21464 26.4055 5.7869C27.6786 7.53945 27.1903 10.0048 25.3453 11.1398L7.31727 22.2307C5.66212 23.2489 3.50204 22.8211 2.35996 21.2489Z" fill="#F9EC31"/>
<path d="M80.64 21.2489C81.9131 19.4963 81.4248 17.0309 79.5799 15.8959L61.5518 4.80507C59.8966 3.78682 57.7366 4.21464 56.5945 5.7869C55.3214 7.53945 55.8097 10.0048 57.6547 11.1398L75.6827 22.2307C77.3379 23.2489 79.498 22.8211 80.64 21.2489Z" fill="#F9EC31"/>
<path d="M41.5 32.5L31.5 25.5H27L41 38L55 25.5H50.5L41.5 32.5Z" fill="#F9EC31"/>
<path d="M48.992 19.5657C48.0082 18.5563 46.6589 18 45.1918 18C44.0948 18 43.0905 18.3284 42.2065 18.9756C41.7602 19.3023 41.3558 19.7018 40.9995 20.1685C40.6433 19.7023 40.2388 19.3023 39.7926 18.9756C38.9085 18.3284 37.9043 18 36.8073 18C35.3402 18 33.9904 18.5563 33.007 19.5657C32.0353 20.5637 31.5 21.927 31.5 23.4049C31.5 24.9258 32.0988 26.3181 33.3846 27.7863C34.5345 29.1 36.1876 30.4335 38.1014 31.9772C38.755 32.5045 39.4958 33.1021 40.2653 33.7388C40.4684 33.9074 40.7291 34 41 34C41.2704 34 41.5311 33.9074 41.7343 33.7388C42.5033 33.1021 43.245 32.5041 43.8986 31.9763C45.8124 30.4326 47.4651 29.0996 48.6154 27.7859C49.9012 26.3177 50.5 24.9254 50.5 23.404C50.4991 21.927 49.9638 20.5637 48.992 19.5657Z" fill="black"/>
</svg>
