<svg width="62" height="74" viewBox="0 0 62 74" fill="none" xmlns="http://www.w3.org/2000/svg">
<path d="M34.3788 57.0069C33.5027 55.9563 32.7216 54.8226 32.0763 53.6074C31.4294 54.8226 30.6498 55.9548 29.7723 57.0069H9.01367C12.0716 66.6514 21.2408 73.6541 32.0748 73.6541C42.9087 73.6541 52.0779 66.6514 55.1373 57.0069H34.3788Z" fill="#F9EC31"/>
<path d="M34.3788 57.0069C33.5027 55.9563 32.7216 54.8226 32.0763 53.6074C31.4294 54.8226 30.6498 55.9548 29.7723 57.0069H9.01367C12.0716 66.6514 21.2408 73.6541 32.0748 73.6541C42.9087 73.6541 52.0779 66.6514 55.1373 57.0069H34.3788Z" fill="#F9EC31"/>
<path d="M42.7428 46.037C40.9606 46.037 39.5085 47.4892 39.5085 49.275C39.5085 51.0592 40.9606 52.5114 42.7428 52.5114C44.5251 52.5114 45.9772 51.0592 45.9772 49.275C45.9772 47.4892 44.5251 46.037 42.7428 46.037ZM42.7428 54.8663C39.6623 54.8663 37.1562 52.3575 37.1562 49.275C37.1562 46.191 39.6623 43.6821 42.7428 43.6821C45.8234 43.6821 48.3294 46.191 48.3294 49.275C48.3294 52.3575 45.8234 54.8663 42.7428 54.8663Z" fill="white"/>
<path d="M42.7428 46.037C40.9606 46.037 39.5085 47.4892 39.5085 49.275C39.5085 51.0592 40.9606 52.5114 42.7428 52.5114C44.5251 52.5114 45.9772 51.0592 45.9772 49.275C45.9772 47.4892 44.5251 46.037 42.7428 46.037ZM42.7428 54.8663C39.6623 54.8663 37.1562 52.3575 37.1562 49.275C37.1562 46.191 39.6623 43.6821 42.7428 43.6821C45.8234 43.6821 48.3294 46.191 48.3294 49.275C48.3294 52.3575 45.8234 54.8663 42.7428 54.8663Z" fill="white"/>
<path d="M8.47282 13.9363C-7.03939 24.3882 3.58013 36.4626 10.8289 41.1933C13.3588 36.634 23.9764 37.5288 28.969 38.546C38.3228 41.8137 45.2392 41.7991 49.6055 40.4857C60.833 37.1083 62.2996 28.2013 61.4214 23.6386C59.4706 14.4805 48.6124 11.1852 42.5708 8.6848C37.2516 6.33362 35.1996 3.89776 33.8815 1.63376C33.4118 -0.0480328 32.9515 0.595177 32.78 1.12701C30.8348 5.8157 26.1238 8.01056 24.0115 8.5219C16.6058 9.37237 10.5667 12.4859 8.47282 13.9363Z" fill="#FF3030"/>
<path d="M8.47282 13.9363C-7.03939 24.3882 3.58013 36.4626 10.8289 41.1933C13.3588 36.634 23.9764 37.5288 28.969 38.546C38.3228 41.8137 45.2392 41.7991 49.6055 40.4857C60.833 37.1083 62.2996 28.2013 61.4214 23.6386C59.4706 14.4805 48.6124 11.1852 42.5708 8.6848C37.2516 6.33362 35.1996 3.89776 33.8815 1.63376C33.4118 -0.0480328 32.9515 0.595177 32.78 1.12701C30.8348 5.8157 26.1238 8.01056 24.0115 8.5219C16.6058 9.37237 10.5667 12.4859 8.47282 13.9363Z" fill="#CB0808"/>
<path d="M33.4823 15.2614L31.5 17.2448L29.5177 15.2614C29.1707 14.9146 28.6072 14.9146 28.2602 15.2614C27.9133 15.6083 27.9133 16.1715 28.2602 16.5184L30.2443 18.5L28.2602 20.4816C27.9133 20.8285 27.9133 21.3917 28.2602 21.7386C28.6072 22.0871 29.1707 22.0871 29.5177 21.7386L31.5 19.757L33.4823 21.7386C33.8293 22.0854 34.3928 22.0854 34.7398 21.7386C35.0867 21.3917 35.0867 20.8285 34.7398 20.4816L32.7574 18.5L34.7398 16.5184C35.0867 16.1715 35.0867 15.6083 34.7398 15.2614C34.3928 14.9129 33.8293 14.9129 33.4823 15.2614Z" fill="#F9EC31"/>
<path d="M33.4823 15.2614L31.5 17.2448L29.5177 15.2614C29.1707 14.9146 28.6072 14.9146 28.2602 15.2614C27.9133 15.6083 27.9133 16.1715 28.2602 16.5184L30.2443 18.5L28.2602 20.4816C27.9133 20.8285 27.9133 21.3917 28.2602 21.7386C28.6072 22.0871 29.1707 22.0871 29.5177 21.7386L31.5 19.757L33.4823 21.7386C33.8293 22.0854 34.3928 22.0854 34.7398 21.7386C35.0867 21.3917 35.0867 20.8285 34.7398 20.4816L32.7574 18.5L34.7398 16.5184C35.0867 16.1715 35.0867 15.6083 34.7398 15.2614C34.3928 14.9129 33.8293 14.9129 33.4823 15.2614Z" fill="#F9EC31"/>
<path d="M23.4823 24.2614L21.5 26.2448L19.5177 24.2614C19.1707 23.9146 18.6072 23.9146 18.2602 24.2614C17.9133 24.6083 17.9133 25.1715 18.2602 25.5184L20.2443 27.5L18.2602 29.4816C17.9133 29.8285 17.9133 30.3917 18.2602 30.7386C18.6072 31.0871 19.1707 31.0871 19.5177 30.7386L21.5 28.757L23.4823 30.7386C23.8293 31.0854 24.3928 31.0854 24.7398 30.7386C25.0867 30.3917 25.0867 29.8285 24.7398 29.4816L22.7574 27.5L24.7398 25.5184C25.0867 25.1715 25.0867 24.6083 24.7398 24.2614C24.3928 23.9129 23.8293 23.9129 23.4823 24.2614Z" fill="#F9EC31"/>
<path d="M23.4823 24.2614L21.5 26.2448L19.5177 24.2614C19.1707 23.9146 18.6072 23.9146 18.2602 24.2614C17.9133 24.6083 17.9133 25.1715 18.2602 25.5184L20.2443 27.5L18.2602 29.4816C17.9133 29.8285 17.9133 30.3917 18.2602 30.7386C18.6072 31.0871 19.1707 31.0871 19.5177 30.7386L21.5 28.757L23.4823 30.7386C23.8293 31.0854 24.3928 31.0854 24.7398 30.7386C25.0867 30.3917 25.0867 29.8285 24.7398 29.4816L22.7574 27.5L24.7398 25.5184C25.0867 25.1715 25.0867 24.6083 24.7398 24.2614C24.3928 23.9129 23.8293 23.9129 23.4823 24.2614Z" fill="#F9EC31"/>
<path d="M43.4823 24.2614L41.5 26.2448L39.5177 24.2614C39.1707 23.9146 38.6072 23.9146 38.2602 24.2614C37.9133 24.6083 37.9133 25.1715 38.2602 25.5184L40.2443 27.5L38.2602 29.4816C37.9133 29.8285 37.9133 30.3917 38.2602 30.7386C38.6072 31.0871 39.1707 31.0871 39.5177 30.7386L41.5 28.757L43.4823 30.7386C43.8293 31.0854 44.3928 31.0854 44.7398 30.7386C45.0867 30.3917 45.0867 29.8285 44.7398 29.4816L42.7574 27.5L44.7398 25.5184C45.0867 25.1715 45.0867 24.6083 44.7398 24.2614C44.3928 23.9129 43.8293 23.9129 43.4823 24.2614Z" fill="#F9EC31"/>
<path d="M43.4823 24.2614L41.5 26.2448L39.5177 24.2614C39.1707 23.9146 38.6072 23.9146 38.2602 24.2614C37.9133 24.6083 37.9133 25.1715 38.2602 25.5184L40.2443 27.5L38.2602 29.4816C37.9133 29.8285 37.9133 30.3917 38.2602 30.7386C38.6072 31.0871 39.1707 31.0871 39.5177 30.7386L41.5 28.757L43.4823 30.7386C43.8293 31.0854 44.3928 31.0854 44.7398 30.7386C45.0867 30.3917 45.0867 29.8285 44.7398 29.4816L42.7574 27.5L44.7398 25.5184C45.0867 25.1715 45.0867 24.6083 44.7398 24.2614C44.3928 23.9129 43.8293 23.9129 43.4823 24.2614Z" fill="#F9EC31"/>
<path d="M24.9213 50H16.0635C15.471 50 15 49.5571 15 49C15 48.4429 15.471 48 16.0635 48H24.9213C25.5138 48 26 48.4571 26 49C26 49.5571 25.5138 50 24.9213 50Z" fill="white"/>
<path d="M24.9213 50H16.0635C15.471 50 15 49.5571 15 49C15 48.4429 15.471 48 16.0635 48H24.9213C25.5138 48 26 48.4571 26 49C26 49.5571 25.5138 50 24.9213 50Z" fill="white"/>
</svg>
