<svg width="62" height="64" viewBox="0 0 62 64" fill="none" xmlns="http://www.w3.org/2000/svg">
<mask id="mask0" mask-type="alpha" maskUnits="userSpaceOnUse" x="0" y="0" width="62" height="22">
<path d="M7.40868 21.5434H62C57.5026 8.99482 45.3154 0 31 0C16.6645 0 4.49741 8.99482 0 21.5434H7.40868Z" fill="#F9EC31"/>
</mask>
<g mask="url(#mask0)">
<path d="M101.467 -35.5659H-46.0264V111.927H101.467V-35.5659Z" fill="#3F5739"/>
<path d="M0.330892 -0.678711H-2.12793V1.78055H0.330892V-0.678711Z" fill="#979D56"/>
<path d="M2.78988 -0.678711H0.331055V1.78055H2.78988V-0.678711Z" fill="#979D56"/>
<path d="M5.24788 -0.678711H2.78906V1.78055H5.24788V-0.678711Z" fill="#3F5739"/>
<path d="M7.7098 -0.678711H5.25098V1.78055H7.7098V-0.678711Z" fill="#151715"/>
<path d="M10.1678 -0.678711H7.70898V1.78055H10.1678V-0.678711Z" fill="#151715"/>
<path d="M12.6268 -0.678711H10.168V1.78055H12.6268V-0.678711Z" fill="#979D56"/>
<path d="M15.0877 -0.678711H12.6289V1.78055H15.0877V-0.678711Z" fill="#979D56"/>
<path d="M17.5467 -0.678711H15.0879V1.78055H17.5467V-0.678711Z" fill="#3F5739"/>
<path d="M20.0057 -0.678711H17.5469V1.78055H20.0057V-0.678711Z" fill="#3F5739"/>
<path d="M22.4666 -0.678711H20.0078V1.78055H22.4666V-0.678711Z" fill="#979D56"/>
<path d="M24.9256 -0.678711H22.4668V1.78055H24.9256V-0.678711Z" fill="#3F5739"/>
<path d="M27.3846 -0.678711H24.9258V1.78055H27.3846V-0.678711Z" fill="#3F5739"/>
<path d="M29.8455 -0.678711H27.3867V1.78055H29.8455V-0.678711Z" fill="#979D56"/>
<path d="M32.3045 -0.678711H29.8457V1.78055H32.3045V-0.678711Z" fill="#3F5739"/>
<path d="M34.7635 -0.678711H32.3047V1.78055H34.7635V-0.678711Z" fill="#979D56"/>
<path d="M37.2245 -0.678711H34.7656V1.78055H37.2245V-0.678711Z" fill="#3F5739"/>
<path d="M39.6834 -0.678711H37.2246V1.78055H39.6834V-0.678711Z" fill="#3F5739"/>
<path d="M42.1424 -0.678711H39.6836V1.78055H42.1424V-0.678711Z" fill="#979D56"/>
<path d="M44.6034 -0.678711H42.1445V1.78055H44.6034V-0.678711Z" fill="#979D56"/>
<path d="M47.0623 -0.678711H44.6035V1.78055H47.0623V-0.678711Z" fill="#3F5739"/>
<path d="M49.5233 -0.678711H47.0645V1.78055H49.5233V-0.678711Z" fill="#151715"/>
<path d="M0.330892 1.78271H-2.12793V4.24197H0.330892V1.78271Z" fill="#979D56"/>
<path d="M2.78988 1.78271H0.331055V4.24197H2.78988V1.78271Z" fill="#3F5739"/>
<path d="M5.24788 1.78271H2.78906V4.24197H5.24788V1.78271Z" fill="#151715"/>
<path d="M7.7098 1.78271H5.25098V4.24197H7.7098V1.78271Z" fill="#151715"/>
<path d="M10.1678 1.78271H7.70898V4.24197H10.1678V1.78271Z" fill="#151715"/>
<path d="M12.6268 1.78271H10.168V4.24197H12.6268V1.78271Z" fill="#151715"/>
<path d="M15.0877 1.78271H12.6289V4.24197H15.0877V1.78271Z" fill="#979D56"/>
<path d="M17.5467 1.78271H15.0879V4.24197H17.5467V1.78271Z" fill="#979D56"/>
<path d="M20.0057 1.78271H17.5469V4.24197H20.0057V1.78271Z" fill="#979D56"/>
<path d="M22.4666 1.78271H20.0078V4.24197H22.4666V1.78271Z" fill="#3F5739"/>
<path d="M24.9256 1.78271H22.4668V4.24197H24.9256V1.78271Z" fill="#3F5739"/>
<path d="M27.3846 1.78271H24.9258V4.24197H27.3846V1.78271Z" fill="#979D56"/>
<path d="M29.8455 1.78271H27.3867V4.24197H29.8455V1.78271Z" fill="#979D56"/>
<path d="M32.3045 1.78271H29.8457V4.24197H32.3045V1.78271Z" fill="#3F5739"/>
<path d="M34.7635 1.78271H32.3047V4.24197H34.7635V1.78271Z" fill="#3F5739"/>
<path d="M37.2245 1.78271H34.7656V4.24197H37.2245V1.78271Z" fill="#3F5739"/>
<path d="M39.6834 1.78271H37.2246V4.24197H39.6834V1.78271Z" fill="#3F5739"/>
<path d="M42.1424 1.78271H39.6836V4.24197H42.1424V1.78271Z" fill="#3F5739"/>
<path d="M44.6034 1.78271H42.1445V4.24197H44.6034V1.78271Z" fill="#979D56"/>
<path d="M47.0623 1.78271H44.6035V4.24197H47.0623V1.78271Z" fill="#151715"/>
<path d="M49.5233 1.78271H47.0645V4.24197H49.5233V1.78271Z" fill="#151715"/>
<path d="M0.330892 4.2417H-2.12793V6.70096H0.330892V4.2417Z" fill="#3F5739"/>
<path d="M2.78988 4.2417H0.331055V6.70096H2.78988V4.2417Z" fill="#979D56"/>
<path d="M5.24788 4.2417H2.78906V6.70096H5.24788V4.2417Z" fill="#151715"/>
<path d="M7.7098 4.2417H5.25098V6.70096H7.7098V4.2417Z" fill="#151715"/>
<path d="M10.1678 4.2417H7.70898V6.70096H10.1678V4.2417Z" fill="#3F5739"/>
<path d="M12.6268 4.2417H10.168V6.70096H12.6268V4.2417Z" fill="#979D56"/>
<path d="M15.0877 4.2417H12.6289V6.70096H15.0877V4.2417Z" fill="#151715"/>
<path d="M17.5467 4.2417H15.0879V6.70096H17.5467V4.2417Z" fill="#979D56"/>
<path d="M20.0057 4.2417H17.5469V6.70096H20.0057V4.2417Z" fill="#3F5739"/>
<path d="M22.4666 4.2417H20.0078V6.70096H22.4666V4.2417Z" fill="#979D56"/>
<path d="M24.9256 4.2417H22.4668V6.70096H24.9256V4.2417Z" fill="#979D56"/>
<path d="M27.3846 4.2417H24.9258V6.70096H27.3846V4.2417Z" fill="#151715"/>
<path d="M29.8455 4.2417H27.3867V6.70096H29.8455V4.2417Z" fill="#151715"/>
<path d="M32.3045 4.2417H29.8457V6.70096H32.3045V4.2417Z" fill="#979D56"/>
<path d="M34.7635 4.2417H32.3047V6.70096H34.7635V4.2417Z" fill="#3F5739"/>
<path d="M37.2245 4.2417H34.7656V6.70096H37.2245V4.2417Z" fill="#3F5739"/>
<path d="M39.6834 4.2417H37.2246V6.70096H39.6834V4.2417Z" fill="#979D56"/>
<path d="M42.1424 4.2417H39.6836V6.70096H42.1424V4.2417Z" fill="#151715"/>
<path d="M44.6034 4.2417H42.1445V6.70096H44.6034V4.2417Z" fill="#151715"/>
<path d="M47.0623 4.2417H44.6035V6.70096H47.0623V4.2417Z" fill="#151715"/>
<path d="M49.5233 4.2417H47.0645V6.70096H49.5233V4.2417Z" fill="#3F5739"/>
<path d="M0.330892 6.70117H-2.12793V9.16043H0.330892V6.70117Z" fill="#979D56"/>
<path d="M2.78988 6.70117H0.331055V9.16043H2.78988V6.70117Z" fill="#151715"/>
<path d="M5.24788 6.70117H2.78906V9.16043H5.24788V6.70117Z" fill="#151715"/>
<path d="M7.7098 6.70117H5.25098V9.16043H7.7098V6.70117Z" fill="#151715"/>
<path d="M10.1678 6.70117H7.70898V9.16043H10.1678V6.70117Z" fill="#3F5739"/>
<path d="M12.6268 6.70117H10.168V9.16043H12.6268V6.70117Z" fill="#979D56"/>
<path d="M15.0877 6.70117H12.6289V9.16043H15.0877V6.70117Z" fill="#979D56"/>
<path d="M17.5467 6.70117H15.0879V9.16043H17.5467V6.70117Z" fill="#3F5739"/>
<path d="M20.0057 6.70117H17.5469V9.16043H20.0057V6.70117Z" fill="#3F5739"/>
<path d="M22.4666 6.70117H20.0078V9.16043H22.4666V6.70117Z" fill="#3F5739"/>
<path d="M24.9256 6.70117H22.4668V9.16043H24.9256V6.70117Z" fill="#979D56"/>
<path d="M27.3846 6.70117H24.9258V9.16043H27.3846V6.70117Z" fill="#151715"/>
<path d="M29.8455 6.70117H27.3867V9.16043H29.8455V6.70117Z" fill="#979D56"/>
<path d="M32.3045 6.70117H29.8457V9.16043H32.3045V6.70117Z" fill="#979D56"/>
<path d="M34.7635 6.70117H32.3047V9.16043H34.7635V6.70117Z" fill="#3F5739"/>
<path d="M37.2245 6.70117H34.7656V9.16043H37.2245V6.70117Z" fill="#979D56"/>
<path d="M39.6834 6.70117H37.2246V9.16043H39.6834V6.70117Z" fill="#979D56"/>
<path d="M42.1424 6.70117H39.6836V9.16043H42.1424V6.70117Z" fill="#151715"/>
<path d="M44.6034 6.70117H42.1445V9.16043H44.6034V6.70117Z" fill="#979D56"/>
<path d="M47.0623 6.70117H44.6035V9.16043H47.0623V6.70117Z" fill="#3F5739"/>
<path d="M49.5233 6.70117H47.0645V9.16043H49.5233V6.70117Z" fill="#3F5739"/>
<path d="M0.330892 9.1626H-2.12793V11.6219H0.330892V9.1626Z" fill="#979D56"/>
<path d="M2.78988 9.1626H0.331055V11.6219H2.78988V9.1626Z" fill="#151715"/>
<path d="M5.24788 9.1626H2.78906V11.6219H5.24788V9.1626Z" fill="#979D56"/>
<path d="M7.7098 9.1626H5.25098V11.6219H7.7098V9.1626Z" fill="#3F5739"/>
<path d="M10.1678 9.1626H7.70898V11.6219H10.1678V9.1626Z" fill="#979D56"/>
<path d="M12.6268 9.1626H10.168V11.6219H12.6268V9.1626Z" fill="#979D56"/>
<path d="M15.0877 9.1626H12.6289V11.6219H15.0877V9.1626Z" fill="#3F5739"/>
<path d="M17.5467 9.1626H15.0879V11.6219H17.5467V9.1626Z" fill="#3F5739"/>
<path d="M20.0057 9.1626H17.5469V11.6219H20.0057V9.1626Z" fill="#979D56"/>
<path d="M22.4666 9.1626H20.0078V11.6219H22.4666V9.1626Z" fill="#979D56"/>
<path d="M24.9256 9.1626H22.4668V11.6219H24.9256V9.1626Z" fill="#3F5739"/>
<path d="M27.3846 9.1626H24.9258V11.6219H27.3846V9.1626Z" fill="#151715"/>
<path d="M29.8455 9.1626H27.3867V11.6219H29.8455V9.1626Z" fill="#979D56"/>
<path d="M32.3045 9.1626H29.8457V11.6219H32.3045V9.1626Z" fill="#979D56"/>
<path d="M34.7635 9.1626H32.3047V11.6219H34.7635V9.1626Z" fill="#3F5739"/>
<path d="M37.2245 9.1626H34.7656V11.6219H37.2245V9.1626Z" fill="#979D56"/>
<path d="M39.6834 9.1626H37.2246V11.6219H39.6834V9.1626Z" fill="#3F5739"/>
<path d="M42.1424 9.1626H39.6836V11.6219H42.1424V9.1626Z" fill="#3F5739"/>
<path d="M44.6034 9.1626H42.1445V11.6219H44.6034V9.1626Z" fill="#979D56"/>
<path d="M47.0623 9.1626H44.6035V11.6219H47.0623V9.1626Z" fill="#3F5739"/>
<path d="M49.5233 9.1626H47.0645V11.6219H49.5233V9.1626Z" fill="#151715"/>
<path d="M0.330892 11.6221H-2.12793V14.0813H0.330892V11.6221Z" fill="#3F5739"/>
<path d="M2.78988 11.6221H0.331055V14.0813H2.78988V11.6221Z" fill="#151715"/>
<path d="M5.24788 11.6221H2.78906V14.0813H5.24788V11.6221Z" fill="#3F5739"/>
<path d="M7.7098 11.6221H5.25098V14.0813H7.7098V11.6221Z" fill="#3F5739"/>
<path d="M10.1678 11.6221H7.70898V14.0813H10.1678V11.6221Z" fill="#979D56"/>
<path d="M12.6268 11.6221H10.168V14.0813H12.6268V11.6221Z" fill="#3F5739"/>
<path d="M15.0877 11.6221H12.6289V14.0813H15.0877V11.6221Z" fill="#979D56"/>
<path d="M17.5467 11.6221H15.0879V14.0813H17.5467V11.6221Z" fill="#979D56"/>
<path d="M20.0057 11.6221H17.5469V14.0813H20.0057V11.6221Z" fill="#979D56"/>
<path d="M22.4666 11.6221H20.0078V14.0813H22.4666V11.6221Z" fill="#979D56"/>
<path d="M24.9256 11.6221H22.4668V14.0813H24.9256V11.6221Z" fill="#3F5739"/>
<path d="M27.3846 11.6221H24.9258V14.0813H27.3846V11.6221Z" fill="#979D56"/>
<path d="M29.8455 11.6221H27.3867V14.0813H29.8455V11.6221Z" fill="#979D56"/>
<path d="M32.3045 11.6221H29.8457V14.0813H32.3045V11.6221Z" fill="#3F5739"/>
<path d="M34.7635 11.6221H32.3047V14.0813H34.7635V11.6221Z" fill="#979D56"/>
<path d="M37.2245 11.6221H34.7656V14.0813H37.2245V11.6221Z" fill="#3F5739"/>
<path d="M39.6834 11.6221H37.2246V14.0813H39.6834V11.6221Z" fill="#979D56"/>
<path d="M42.1424 11.6221H39.6836V14.0813H42.1424V11.6221Z" fill="#979D56"/>
<path d="M44.6034 11.6221H42.1445V14.0813H44.6034V11.6221Z" fill="#3F5739"/>
<path d="M47.0623 11.6221H44.6035V14.0813H47.0623V11.6221Z" fill="#151715"/>
<path d="M49.5233 11.6221H47.0645V14.0813H49.5233V11.6221Z" fill="#3F5739"/>
<path d="M0.330892 14.0811H-2.12793V16.5403H0.330892V14.0811Z" fill="#3F5739"/>
<path d="M2.78988 14.0811H0.331055V16.5403H2.78988V14.0811Z" fill="#3F5739"/>
<path d="M5.24788 14.0811H2.78906V16.5403H5.24788V14.0811Z" fill="#3F5739"/>
<path d="M7.7098 14.0811H5.25098V16.5403H7.7098V14.0811Z" fill="#3F5739"/>
<path d="M10.1678 14.0811H7.70898V16.5403H10.1678V14.0811Z" fill="#3F5739"/>
<path d="M12.6268 14.0811H10.168V16.5403H12.6268V14.0811Z" fill="#3F5739"/>
<path d="M15.0877 14.0811H12.6289V16.5403H15.0877V14.0811Z" fill="#979D56"/>
<path d="M17.5467 14.0811H15.0879V16.5403H17.5467V14.0811Z" fill="#151715"/>
<path d="M20.0057 14.0811H17.5469V16.5403H20.0057V14.0811Z" fill="#3F5739"/>
<path d="M22.4666 14.0811H20.0078V16.5403H22.4666V14.0811Z" fill="#3F5739"/>
<path d="M24.9256 14.0811H22.4668V16.5403H24.9256V14.0811Z" fill="#979D56"/>
<path d="M27.3846 14.0811H24.9258V16.5403H27.3846V14.0811Z" fill="#979D56"/>
<path d="M29.8455 14.0811H27.3867V16.5403H29.8455V14.0811Z" fill="#3F5739"/>
<path d="M32.3045 14.0811H29.8457V16.5403H32.3045V14.0811Z" fill="#979D56"/>
<path d="M34.7635 14.0811H32.3047V16.5403H34.7635V14.0811Z" fill="#3F5739"/>
<path d="M37.2245 14.0811H34.7656V16.5403H37.2245V14.0811Z" fill="#979D56"/>
<path d="M39.6834 14.0811H37.2246V16.5403H39.6834V14.0811Z" fill="#979D56"/>
<path d="M42.1424 14.0811H39.6836V16.5403H42.1424V14.0811Z" fill="#3F5739"/>
<path d="M44.6034 14.0811H42.1445V16.5403H44.6034V14.0811Z" fill="#3F5739"/>
<path d="M47.0623 14.0811H44.6035V16.5403H47.0623V14.0811Z" fill="#151715"/>
<path d="M49.5233 14.0811H47.0645V16.5403H49.5233V14.0811Z" fill="#151715"/>
<path d="M0.330892 16.543H-2.12793V19.0022H0.330892V16.543Z" fill="#979D56"/>
<path d="M2.78988 16.543H0.331055V19.0022H2.78988V16.543Z" fill="#979D56"/>
<path d="M5.24788 16.543H2.78906V19.0022H5.24788V16.543Z" fill="#3F5739"/>
<path d="M7.7098 16.543H5.25098V19.0022H7.7098V16.543Z" fill="#979D56"/>
<path d="M10.1678 16.543H7.70898V19.0022H10.1678V16.543Z" fill="#979D56"/>
<path d="M12.6268 16.543H10.168V19.0022H12.6268V16.543Z" fill="#979D56"/>
<path d="M15.0877 16.543H12.6289V19.0022H15.0877V16.543Z" fill="#3F5739"/>
<path d="M17.5467 16.543H15.0879V19.0022H17.5467V16.543Z" fill="#151715"/>
<path d="M20.0057 16.543H17.5469V19.0022H20.0057V16.543Z" fill="#3F5739"/>
<path d="M22.4666 16.543H20.0078V19.0022H22.4666V16.543Z" fill="#979D56"/>
<path d="M24.9256 16.543H22.4668V19.0022H24.9256V16.543Z" fill="#979D56"/>
<path d="M27.3846 16.543H24.9258V19.0022H27.3846V16.543Z" fill="#151715"/>
<path d="M29.8455 16.543H27.3867V19.0022H29.8455V16.543Z" fill="#151715"/>
<path d="M32.3045 16.543H29.8457V19.0022H32.3045V16.543Z" fill="#151715"/>
<path d="M34.7635 16.543H32.3047V19.0022H34.7635V16.543Z" fill="#151715"/>
<path d="M37.2245 16.543H34.7656V19.0022H37.2245V16.543Z" fill="#979D56"/>
<path d="M39.6834 16.543H37.2246V19.0022H39.6834V16.543Z" fill="#979D56"/>
<path d="M42.1424 16.543H39.6836V19.0022H42.1424V16.543Z" fill="#979D56"/>
<path d="M44.6034 16.543H42.1445V19.0022H44.6034V16.543Z" fill="#979D56"/>
<path d="M47.0623 16.543H44.6035V19.0022H47.0623V16.543Z" fill="#3F5739"/>
<path d="M49.5233 16.543H47.0645V19.0022H49.5233V16.543Z" fill="#151715"/>
<path d="M0.330892 19.002H-2.12793V21.4612H0.330892V19.002Z" fill="#979D56"/>
<path d="M2.78988 19.002H0.331055V21.4612H2.78988V19.002Z" fill="#3F5739"/>
<path d="M5.24788 19.002H2.78906V21.4612H5.24788V19.002Z" fill="#979D56"/>
<path d="M7.7098 19.002H5.25098V21.4612H7.7098V19.002Z" fill="#979D56"/>
<path d="M10.1678 19.002H7.70898V21.4612H10.1678V19.002Z" fill="#151715"/>
<path d="M12.6268 19.002H10.168V21.4612H12.6268V19.002Z" fill="#979D56"/>
<path d="M15.0877 19.002H12.6289V21.4612H15.0877V19.002Z" fill="#3F5739"/>
<path d="M17.5467 19.002H15.0879V21.4612H17.5467V19.002Z" fill="#151715"/>
<path d="M20.0057 19.002H17.5469V21.4612H20.0057V19.002Z" fill="#151715"/>
<path d="M22.4666 19.002H20.0078V21.4612H22.4666V19.002Z" fill="#151715"/>
<path d="M24.9256 19.002H22.4668V21.4612H24.9256V19.002Z" fill="#979D56"/>
<path d="M27.3846 19.002H24.9258V21.4612H27.3846V19.002Z" fill="#979D56"/>
<path d="M29.8455 19.002H27.3867V21.4612H29.8455V19.002Z" fill="#3F5739"/>
<path d="M32.3045 19.002H29.8457V21.4612H32.3045V19.002Z" fill="#151715"/>
<path d="M34.7635 19.002H32.3047V21.4612H34.7635V19.002Z" fill="#979D56"/>
<path d="M37.2245 19.002H34.7656V21.4612H37.2245V19.002Z" fill="#979D56"/>
<path d="M39.6834 19.002H37.2246V21.4612H39.6834V19.002Z" fill="#3F5739"/>
<path d="M42.1424 19.002H39.6836V21.4612H42.1424V19.002Z" fill="#3F5739"/>
<path d="M44.6034 19.002H42.1445V21.4612H44.6034V19.002Z" fill="#979D56"/>
<path d="M47.0623 19.002H44.6035V21.4612H47.0623V19.002Z" fill="#979D56"/>
<path d="M49.5233 19.002H47.0645V21.4612H49.5233V19.002Z" fill="#979D56"/>
<path d="M0.330892 21.4614H-2.12793V23.9207H0.330892V21.4614Z" fill="#3F5739"/>
<path d="M2.78988 21.4614H0.331055V23.9207H2.78988V21.4614Z" fill="#979D56"/>
<path d="M5.24788 21.4614H2.78906V23.9207H5.24788V21.4614Z" fill="#979D56"/>
<path d="M7.7098 21.4614H5.25098V23.9207H7.7098V21.4614Z" fill="#979D56"/>
<path d="M10.1678 21.4614H7.70898V23.9207H10.1678V21.4614Z" fill="#3F5739"/>
<path d="M12.6268 21.4614H10.168V23.9207H12.6268V21.4614Z" fill="#3F5739"/>
<path d="M15.0877 21.4614H12.6289V23.9207H15.0877V21.4614Z" fill="#3F5739"/>
<path d="M17.5467 21.4614H15.0879V23.9207H17.5467V21.4614Z" fill="#3F5739"/>
<path d="M20.0057 21.4614H17.5469V23.9207H20.0057V21.4614Z" fill="#151715"/>
<path d="M22.4666 21.4614H20.0078V23.9207H22.4666V21.4614Z" fill="#151715"/>
<path d="M24.9256 21.4614H22.4668V23.9207H24.9256V21.4614Z" fill="#151715"/>
<path d="M27.3846 21.4614H24.9258V23.9207H27.3846V21.4614Z" fill="#3F5739"/>
<path d="M29.8455 21.4614H27.3867V23.9207H29.8455V21.4614Z" fill="#3F5739"/>
<path d="M32.3045 21.4614H29.8457V23.9207H32.3045V21.4614Z" fill="#3F5739"/>
<path d="M34.7635 21.4614H32.3047V23.9207H34.7635V21.4614Z" fill="#3F5739"/>
<path d="M37.2245 21.4614H34.7656V23.9207H37.2245V21.4614Z" fill="#979D56"/>
<path d="M39.6834 21.4614H37.2246V23.9207H39.6834V21.4614Z" fill="#3F5739"/>
<path d="M42.1424 21.4614H39.6836V23.9207H42.1424V21.4614Z" fill="#3F5739"/>
<path d="M44.6034 21.4614H42.1445V23.9207H44.6034V21.4614Z" fill="#3F5739"/>
<path d="M47.0623 21.4614H44.6035V23.9207H47.0623V21.4614Z" fill="#3F5739"/>
<path d="M49.5233 21.4614H47.0645V23.9207H49.5233V21.4614Z" fill="#979D56"/>
<path d="M59.3612 4.2417H56.9023V6.70096H59.3612V4.2417Z" fill="#3F5739"/>
<path d="M56.9022 4.2417H54.4434V6.70096H56.9022V4.2417Z" fill="#151715"/>
<path d="M54.4412 4.2417H51.9824V6.70096H54.4412V4.2417Z" fill="#151715"/>
<path d="M51.9823 4.2417H49.5234V6.70096H51.9823V4.2417Z" fill="#979D56"/>
<path d="M59.3612 1.78271H56.9023V4.24197H59.3612V1.78271Z" fill="#979D56"/>
<path d="M56.9022 1.78271H54.4434V4.24197H56.9022V1.78271Z" fill="#979D56"/>
<path d="M54.4412 1.78271H51.9824V4.24197H54.4412V1.78271Z" fill="#3F5739"/>
<path d="M51.9823 1.78271H49.5234V4.24197H51.9823V1.78271Z" fill="#979D56"/>
<path d="M59.3612 -0.678711H56.9023V1.78055H59.3612V-0.678711Z" fill="#3F5739"/>
<path d="M56.9022 -0.678711H54.4434V1.78055H56.9022V-0.678711Z" fill="#979D56"/>
<path d="M54.4412 -0.678711H51.9824V1.78055H54.4412V-0.678711Z" fill="#979D56"/>
<path d="M51.9823 -0.678711H49.5234V1.78055H51.9823V-0.678711Z" fill="#979D56"/>
<path d="M59.3612 21.4478H56.9023V23.907H59.3612V21.4478Z" fill="#979D56"/>
<path d="M56.9022 21.4478H54.4434V23.907H56.9022V21.4478Z" fill="#979D56"/>
<path d="M54.4412 21.4478H51.9824V23.907H54.4412V21.4478Z" fill="#3F5739"/>
<path d="M51.9823 21.4478H49.5234V23.907H51.9823V21.4478Z" fill="#979D56"/>
<path d="M59.3612 18.9858H56.9023V21.4451H59.3612V18.9858Z" fill="#151715"/>
<path d="M56.9022 18.9858H54.4434V21.4451H56.9022V18.9858Z" fill="#3F5739"/>
<path d="M54.4412 18.9858H51.9824V21.4451H54.4412V18.9858Z" fill="#3F5739"/>
<path d="M51.9823 18.9858H49.5234V21.4451H51.9823V18.9858Z" fill="#979D56"/>
<path d="M59.3612 16.5269H56.9023V18.9861H59.3612V16.5269Z" fill="#151715"/>
<path d="M56.9022 16.5269H54.4434V18.9861H56.9022V16.5269Z" fill="#151715"/>
<path d="M54.4412 16.5269H51.9824V18.9861H54.4412V16.5269Z" fill="#979D56"/>
<path d="M51.9823 16.5269H49.5234V18.9861H51.9823V16.5269Z" fill="#3F5739"/>
<path d="M59.3612 14.0674H56.9023V16.5266H59.3612V14.0674Z" fill="#979D56"/>
<path d="M56.9022 14.0674H54.4434V16.5266H56.9022V14.0674Z" fill="#979D56"/>
<path d="M54.4412 14.0674H51.9824V16.5266H54.4412V14.0674Z" fill="#3F5739"/>
<path d="M51.9823 14.0674H49.5234V16.5266H51.9823V14.0674Z" fill="#3F5739"/>
<path d="M59.3612 11.606H56.9023V14.0652H59.3612V11.606Z" fill="#979D56"/>
<path d="M56.9022 11.606H54.4434V14.0652H56.9022V11.606Z" fill="#3F5739"/>
<path d="M54.4412 11.606H51.9824V14.0652H54.4412V11.606Z" fill="#979D56"/>
<path d="M51.9823 11.606H49.5234V14.0652H51.9823V11.606Z" fill="#3F5739"/>
<path d="M59.3612 9.14648H56.9023V11.6057H59.3612V9.14648Z" fill="#3F5739"/>
<path d="M56.9022 9.14648H54.4434V11.6057H56.9022V9.14648Z" fill="#979D56"/>
<path d="M54.4412 9.14648H51.9824V11.6057H54.4412V9.14648Z" fill="#979D56"/>
<path d="M51.9823 9.14648H49.5234V11.6057H51.9823V9.14648Z" fill="#151715"/>
<path d="M59.3612 6.6875H56.9023V9.14676H59.3612V6.6875Z" fill="#979D56"/>
<path d="M56.9022 6.6875H54.4434V9.14676H56.9022V6.6875Z" fill="#979D56"/>
<path d="M54.4412 6.6875H51.9824V9.14676H54.4412V6.6875Z" fill="#979D56"/>
<path d="M51.9823 6.6875H49.5234V9.14676H51.9823V6.6875Z" fill="#3F5739"/>
<path d="M64.2811 4.2417H61.8223V6.70096H64.2811V4.2417Z" fill="#151715"/>
<path d="M61.8192 4.2417H59.3604V6.70096H61.8192V4.2417Z" fill="#151715"/>
<path d="M64.2811 1.78271H61.8223V4.24197H64.2811V1.78271Z" fill="#3F5739"/>
<path d="M61.8192 1.78271H59.3604V4.24197H61.8192V1.78271Z" fill="#151715"/>
<path d="M64.2811 -0.678711H61.8223V1.78055H64.2811V-0.678711Z" fill="#979D56"/>
<path d="M61.8192 -0.678711H59.3604V1.78055H61.8192V-0.678711Z" fill="#151715"/>
<path d="M64.2811 21.4478H61.8223V23.907H64.2811V21.4478Z" fill="#3F5739"/>
<path d="M61.8192 21.4478H59.3604V23.907H61.8192V21.4478Z" fill="#979D56"/>
<path d="M64.2811 18.9858H61.8223V21.4451H64.2811V18.9858Z" fill="#3F5739"/>
<path d="M61.8192 18.9858H59.3604V21.4451H61.8192V18.9858Z" fill="#979D56"/>
<path d="M64.2811 16.5269H61.8223V18.9861H64.2811V16.5269Z" fill="#979D56"/>
<path d="M61.8192 16.5269H59.3604V18.9861H61.8192V16.5269Z" fill="#3F5739"/>
<path d="M64.2811 14.0674H61.8223V16.5266H64.2811V14.0674Z" fill="#3F5739"/>
<path d="M61.8192 14.0674H59.3604V16.5266H61.8192V14.0674Z" fill="#3F5739"/>
<path d="M64.2811 11.606H61.8223V14.0652H64.2811V11.606Z" fill="#979D56"/>
<path d="M61.8192 11.606H59.3604V14.0652H61.8192V11.606Z" fill="#3F5739"/>
<path d="M64.2811 9.14648H61.8223V11.6057H64.2811V9.14648Z" fill="#979D56"/>
<path d="M61.8192 9.14648H59.3604V11.6057H61.8192V9.14648Z" fill="#151715"/>
<path d="M64.2811 6.6875H61.8223V9.14676H64.2811V6.6875Z" fill="#979D56"/>
<path d="M61.8192 6.6875H59.3604V9.14676H61.8192V6.6875Z" fill="#3F5739"/>
</g>
<path d="M34.094 41.2937C32.9239 39.8855 31.8727 38.3583 31 36.7319C30.1273 38.3583 29.0761 39.8855 27.906 41.2937H0C4.10557 54.245 16.4421 63.6462 31 63.6462C45.5579 63.6462 57.8944 54.245 62 41.2937H34.094Z" fill="#F9EC31"/>
<path d="M18.9403 26.5261L15.7074 29.759L12.4746 26.5261C11.8994 25.9708 10.987 25.9708 10.4119 26.5261C9.83667 27.1013 9.83667 28.0136 10.4119 28.5888L13.6447 31.8217L10.4119 35.0546C9.83667 35.6298 9.83667 36.5421 10.4119 37.0974C10.987 37.6726 11.8994 37.6726 12.4746 37.0974L15.7074 33.8646L18.9403 37.0974C19.5155 37.6726 20.4278 37.6726 20.9832 37.0974C21.5584 36.5223 21.5584 35.6099 20.9832 35.0546L17.7503 31.8217L20.9832 28.5888C21.5584 28.0136 21.5584 27.1013 20.9832 26.5261C20.408 25.9509 19.4957 25.9509 18.9403 26.5261Z" fill="white"/>
<path d="M45.3392 27.5574C42.9393 27.5574 40.9956 29.5011 40.9956 31.9009C40.9956 34.3008 42.9393 36.2445 45.3392 36.2445C47.7391 36.2445 49.6828 34.3008 49.6828 31.9009C49.6828 29.5011 47.7193 27.5574 45.3392 27.5574ZM45.3392 39.4179C41.194 39.4179 37.8223 36.0462 37.8223 31.9208C37.8223 27.7755 41.194 24.4038 45.3392 24.4038C49.4845 24.4038 52.8562 27.7755 52.8562 31.9208C52.8363 36.0462 49.4646 39.4179 45.3392 39.4179Z" fill="white"/>
<path d="M19 51C19 49.8954 19.8954 49 21 49H40C41.1046 49 42 49.8954 42 51C42 52.1046 41.1046 53 40 53H21C19.8954 53 19 52.1046 19 51Z" fill="black"/>
</svg>
